<svg xmlns="http://www.w3.org/2000/svg" version="1.1" xmlns:xlink="http://www.w3.org/1999/xlink" xmlns:svgjs="http://svgjs.com/svgjs" width="2000" height="1800" preserveAspectRatio="none" viewBox="0 0 2000 1800"><g mask="url(&quot;#SvgjsMask1428&quot;)" fill="none"><rect width="2000" height="1800" x="0" y="0" fill="url(#SvgjsLinearGradient1429)"></rect><path d="M302.01593125599504 541.8183781235015L354.2676126757808 211.914245415011 24.363479967290345 159.66256399522524-27.888201452495423 489.5666967037157z" fill="rgba(181, 184, 13, 0.41)" class="triangle-float1"></path><path d="M877.8068159948077 416.22575291731584L1178.220972239752 525.5675637426715 1192.0266103553133 20.275423962577463z" fill="rgba(181, 184, 13, 0.41)" class="triangle-float1"></path><path d="M1145.473,973.507C1320.434,966.625,1481.656,876.703,1567.292,723.977C1651.118,574.479,1638.976,393.421,1554.29,244.408C1468.513,93.474,1318.929,-11.061,1145.473,-18.255C958.62,-26.005,772.101,49.043,673.374,207.873C569.295,375.313,558.497,591.775,661.973,759.588C761.113,920.37,956.729,980.931,1145.473,973.507" fill="rgba(181, 184, 13, 0.41)" class="triangle-float1"></path><path d="M1083.799501837722 896.7084596596999L1141.1765287652797 1166.646148135445 1517.3945480151183 945.6117635062353z" fill="rgba(181, 184, 13, 0.41)" class="triangle-float1"></path><path d="M1308.5437407160039 1271.9166648858193L974.1481102356147 1670.433858858629 1707.0609346888136 1606.3122953662084z" fill="rgba(181, 184, 13, 0.41)" class="triangle-float2"></path><path d="M25.454398909377403 260.53108982751775L-108.11557741890672 726.3449545382641 491.26826362012383 394.10106615580185z" fill="rgba(181, 184, 13, 0.41)" class="triangle-float2"></path><path d="M1819.6680166951323 640.3265389157368L2013.0212634254679 950.4136161346489 2167.890670518551 671.0218099081561z" fill="rgba(181, 184, 13, 0.41)" class="triangle-float1"></path><path d="M1211.9574737191258 557.0357060778222L1253.7253989442324 854.2299365913531 1550.9196294577634 812.4620113662463 1509.1517042326568 515.2677808527154z" fill="rgba(181, 184, 13, 0.41)" class="triangle-float2"></path><path d="M1629.743826860013 2124.817726773166L2039.628775682139 1827.0188798645909 1741.8299287735636 1417.133931042465 1331.9449799514377 1714.9327779510404z" fill="rgba(181, 184, 13, 0.41)" class="triangle-float3"></path><path d="M1280.1452478977524 1368.4098505752738L1108.9842944820243 1703.5421808631925 1437.7386497370167 1692.0618258039249z" fill="rgba(181, 184, 13, 0.41)" class="triangle-float2"></path><path d="M186.22298791981754 1899.293284447576L421.86985936822896 1694.4485842895865-18.621712238171995 1663.6464129991646z" fill="rgba(181, 184, 13, 0.41)" class="triangle-float1"></path><path d="M668.057,818.477C731.951,814.52,776.54,760.24,804.97,702.883C829.894,652.599,831.988,593.988,803.212,545.805C775.145,498.81,722.776,475.084,668.057,473.637C610.33,472.11,552.531,490.65,519.926,538.312C482.64,592.818,467.37,663.5,498.238,721.881C530.863,783.586,598.392,822.792,668.057,818.477" fill="rgba(181, 184, 13, 0.41)" class="triangle-float2"></path><path d="M2033.658,2004.074C2218.772,2014.697,2413.242,1939.982,2499.877,1776.047C2582.57,1619.572,2499.599,1442.223,2411.786,1288.563C2323.016,1133.228,2212.422,967.487,2033.658,960.234C1845.885,952.616,1682.125,1087.331,1598.372,1255.563C1522.769,1407.422,1566.461,1580.732,1651.74,1727.376C1736.443,1873.03,1865.442,1994.421,2033.658,2004.074" fill="rgba(181, 184, 13, 0.41)" class="triangle-float1"></path><path d="M362.7 1144.58 a590.99 590.99 0 1 0 1181.98 0 a590.99 590.99 0 1 0 -1181.98 0z" fill="rgba(181, 184, 13, 0.41)" class="triangle-float2"></path><path d="M1399.41 867.78 a404.92 404.92 0 1 0 809.84 0 a404.92 404.92 0 1 0 -809.84 0z" fill="rgba(181, 184, 13, 0.41)" class="triangle-float1"></path></g><defs><mask id="SvgjsMask1428"><rect width="2000" height="1800" fill="#ffffff"></rect></mask><linearGradient x1="50%" y1="0%" x2="50%" y2="100%" gradientUnits="userSpaceOnUse" id="SvgjsLinearGradient1429"><stop stop-color="rgba(0, 0, 0, 1)" offset="0"></stop><stop stop-color="rgba(84, 84, 24, 1)" offset="1"></stop></linearGradient><style>
            @keyframes float1 {
                0%{transform: translate(0, 0)}
                50%{transform: translate(-10px, 0)}
                100%{transform: translate(0, 0)}
            }

            .triangle-float1 {
                animation: float1 5s infinite;
            }

            @keyframes float2 {
                0%{transform: translate(0, 0)}
                50%{transform: translate(-5px, -5px)}
                100%{transform: translate(0, 0)}
            }

            .triangle-float2 {
                animation: float2 4s infinite;
            }

            @keyframes float3 {
                0%{transform: translate(0, 0)}
                50%{transform: translate(0, -10px)}
                100%{transform: translate(0, 0)}
            }

            .triangle-float3 {
                animation: float3 6s infinite;
            }
        </style></defs></svg>